<mxfile host="app.diagrams.net" modified="2024-05-20T17:49:03.711Z" agent="Mozilla/5.0 (Windows NT 10.0; Win64; x64) AppleWebKit/537.36 (KHTML, like Gecko) Chrome/125.0.0.0 Safari/537.36" etag="vlU8Dt8oCPUPgOK1xP0T" version="24.4.4" type="device">
  <diagram name="Page-1" id="AHARCTybtVZqEhIPzndx">
    <mxGraphModel dx="786" dy="841" grid="1" gridSize="10" guides="1" tooltips="1" connect="1" arrows="1" fold="1" page="1" pageScale="1" pageWidth="850" pageHeight="1100" math="0" shadow="0">
      <root>
        <mxCell id="0" />
        <mxCell id="1" parent="0" />
        <mxCell id="EoqDqFKOhqVpDuft7ZOQ-1" value="Webseite öffnen" style="rounded=1;whiteSpace=wrap;html=1;fontStyle=1" parent="1" vertex="1">
          <mxGeometry x="240" y="320" width="120" height="60" as="geometry" />
        </mxCell>
        <mxCell id="EoqDqFKOhqVpDuft7ZOQ-2" value="Mit verifiziertem Konto fortfahren" style="rounded=1;whiteSpace=wrap;html=1;fontStyle=1" parent="1" vertex="1">
          <mxGeometry x="240" y="440" width="120" height="60" as="geometry" />
        </mxCell>
        <mxCell id="EoqDqFKOhqVpDuft7ZOQ-3" value="" style="endArrow=classic;html=1;rounded=0;fontStyle=1" parent="1" source="EoqDqFKOhqVpDuft7ZOQ-1" target="EoqDqFKOhqVpDuft7ZOQ-2" edge="1">
          <mxGeometry width="50" height="50" relative="1" as="geometry">
            <mxPoint x="410" y="360" as="sourcePoint" />
            <mxPoint x="370" y="360" as="targetPoint" />
            <Array as="points" />
          </mxGeometry>
        </mxCell>
        <mxCell id="EoqDqFKOhqVpDuft7ZOQ-4" value="Kontoeinstellungen&lt;br&gt;öffnen" style="rounded=1;whiteSpace=wrap;html=1;fontStyle=1" parent="1" vertex="1">
          <mxGeometry x="240" y="560" width="120" height="60" as="geometry" />
        </mxCell>
        <mxCell id="EoqDqFKOhqVpDuft7ZOQ-5" value="" style="endArrow=classic;html=1;rounded=0;fontStyle=1;exitX=0.5;exitY=1;exitDx=0;exitDy=0;" parent="1" source="EoqDqFKOhqVpDuft7ZOQ-2" target="EoqDqFKOhqVpDuft7ZOQ-4" edge="1">
          <mxGeometry width="50" height="50" relative="1" as="geometry">
            <mxPoint x="410" y="550" as="sourcePoint" />
            <mxPoint x="410" y="610" as="targetPoint" />
            <Array as="points" />
          </mxGeometry>
        </mxCell>
        <mxCell id="EoqDqFKOhqVpDuft7ZOQ-6" value="Tags hinzufügen" style="rounded=1;whiteSpace=wrap;html=1;fontStyle=1" parent="1" vertex="1">
          <mxGeometry x="160" y="680" width="120" height="60" as="geometry" />
        </mxCell>
        <mxCell id="EoqDqFKOhqVpDuft7ZOQ-7" value="" style="endArrow=classic;html=1;rounded=0;fontStyle=1;exitX=0.5;exitY=1;exitDx=0;exitDy=0;entryX=0.5;entryY=0;entryDx=0;entryDy=0;" parent="1" source="EoqDqFKOhqVpDuft7ZOQ-4" target="EoqDqFKOhqVpDuft7ZOQ-6" edge="1">
          <mxGeometry width="50" height="50" relative="1" as="geometry">
            <mxPoint x="390" y="660" as="sourcePoint" />
            <mxPoint x="390" y="720" as="targetPoint" />
            <Array as="points" />
          </mxGeometry>
        </mxCell>
        <mxCell id="EoqDqFKOhqVpDuft7ZOQ-8" value="Tags löschen" style="rounded=1;whiteSpace=wrap;html=1;fontStyle=1" parent="1" vertex="1">
          <mxGeometry x="320" y="680" width="120" height="60" as="geometry" />
        </mxCell>
        <mxCell id="EoqDqFKOhqVpDuft7ZOQ-9" value="" style="endArrow=classic;html=1;rounded=0;fontStyle=1;entryX=0.5;entryY=0;entryDx=0;entryDy=0;" parent="1" target="EoqDqFKOhqVpDuft7ZOQ-8" edge="1">
          <mxGeometry width="50" height="50" relative="1" as="geometry">
            <mxPoint x="300" y="620" as="sourcePoint" />
            <mxPoint x="240" y="700" as="targetPoint" />
            <Array as="points" />
          </mxGeometry>
        </mxCell>
        <mxCell id="EoqDqFKOhqVpDuft7ZOQ-10" value="Beweisdokument hinzufügen" style="rounded=1;whiteSpace=wrap;html=1;fontStyle=1" parent="1" vertex="1">
          <mxGeometry x="160" y="800" width="120" height="60" as="geometry" />
        </mxCell>
        <mxCell id="EoqDqFKOhqVpDuft7ZOQ-11" value="" style="endArrow=classic;html=1;rounded=0;fontStyle=1;exitX=0.5;exitY=1;exitDx=0;exitDy=0;entryX=0.5;entryY=0;entryDx=0;entryDy=0;" parent="1" source="EoqDqFKOhqVpDuft7ZOQ-6" target="EoqDqFKOhqVpDuft7ZOQ-10" edge="1">
          <mxGeometry width="50" height="50" relative="1" as="geometry">
            <mxPoint x="310" y="770" as="sourcePoint" />
            <mxPoint x="230" y="830" as="targetPoint" />
            <Array as="points" />
          </mxGeometry>
        </mxCell>
      </root>
    </mxGraphModel>
  </diagram>
</mxfile>
